<svg width="190" height="219" viewBox="0 0 190 219" fill="none" xmlns="http://www.w3.org/2000/svg">
<path d="M131.808 189.188H73.3834C63.363 189.188 55.165 181.022 55.165 171.042V119.628C55.165 109.648 63.363 101.482 73.3834 101.482H131.809C141.829 101.482 150.027 109.648 150.027 119.628V171.042C150.027 181.022 141.828 189.188 131.808 189.188Z" fill="white"/>
<path d="M131.809 101.482C141.829 101.482 150.027 109.647 150.027 119.627V171.041C150.027 181.022 141.829 189.187 131.809 189.187H73.3842C63.3638 189.187 55.1658 181.022 55.1658 171.041V119.627C55.1658 109.647 63.3638 101.482 73.3842 101.482H131.809ZM131.809 98.6136H73.3842C70.5465 98.6136 67.7878 99.1724 65.1846 100.274C62.6751 101.336 60.42 102.853 58.4815 104.784C56.5431 106.715 55.0193 108.962 53.953 111.46C52.8473 114.053 52.2861 116.801 52.2861 119.627V171.041C52.2861 173.868 52.8473 176.615 53.953 179.208C55.0193 181.708 56.5423 183.954 58.4815 185.885C60.42 187.815 62.676 189.333 65.1846 190.395C67.7878 191.496 70.5465 192.055 73.3842 192.055H131.809C134.647 192.055 137.406 191.496 140.009 190.395C142.518 189.333 144.774 187.816 146.712 185.885C148.65 183.954 150.174 181.707 151.24 179.208C152.346 176.615 152.907 173.868 152.907 171.041V119.627C152.907 116.801 152.346 114.053 151.24 111.46C150.174 108.961 148.651 106.715 146.712 104.784C144.774 102.854 142.518 101.336 140.009 100.274C137.406 99.1724 134.646 98.6136 131.809 98.6136Z" fill="#00227B"/>
<path d="M148.721 157.396C139.625 158.458 130.558 158.72 130.558 158.72C130.558 158.72 125.94 135.787 124.66 117.805C123.717 104.481 124.604 93.8777 130.558 97.3359C133.297 98.9273 136.451 101.924 139.741 105.726C152.078 119.989 166.252 145.601 167.03 150.915C167.532 154.333 158.114 156.293 148.721 157.396Z" fill="white"/>
<path d="M129.34 160.247L129.091 159.014C129.063 158.873 126.24 144.782 124.412 130.192C123.334 121.59 122.808 114.488 122.846 109.083C122.897 101.701 123.974 97.5146 126.232 95.9076C127.224 95.202 128.91 94.6546 131.313 96.0502C139.233 100.652 149.284 115.313 154.571 123.642C158.098 129.198 161.474 135.038 164.078 140.086C165.912 143.643 168.171 148.371 168.512 150.699C168.612 151.375 168.545 152.401 167.665 153.445C166.392 154.954 163.749 156.136 159.344 157.162C156.115 157.914 151.966 158.561 147.011 159.086C138.623 159.973 130.681 160.209 130.602 160.211L129.34 160.247ZM128.496 98.1669C128.207 98.1669 128.055 98.2751 127.972 98.3333C126.996 99.0282 124.068 103.35 127.381 129.808C128.881 141.79 131.059 153.439 131.783 157.184C134.337 157.081 140.398 156.787 146.712 156.119C161.37 154.566 164.645 152.39 165.373 151.527C165.574 151.289 165.558 151.178 165.55 151.13C165.125 148.234 159.595 137.136 152.041 125.235C143.293 111.452 135.189 101.753 129.805 98.625C129.194 98.2702 128.779 98.1669 128.496 98.1669Z" fill="#00227B"/>
<path d="M84.2701 96.4903L82.4287 110.362L81.3814 118.249L79.1476 135.088C79.1476 135.088 75.065 137.853 68.2739 140.045C65.7365 140.865 62.8141 141.598 59.5889 142.079C54.3166 142.869 48.2208 142.97 41.6165 141.625C24.6248 138.158 14.4275 125.587 10.0125 119.267C1.47966 107.067 0.166528 103.769 2.53855 98.6332C4.34945 94.6973 7.45209 93.9786 7.45209 93.9786C7.45209 93.9786 7.29905 90.8335 9.7986 89.7149C17.2899 86.364 26.94 95.3127 26.94 95.3127C26.94 95.3127 27.2996 85.6896 32.4706 87.9112C36.0332 89.4428 36.8411 99.9198 36.8411 99.9198C36.8411 99.9198 41.623 106.04 49.2196 106.852C53.1894 107.276 58.683 106.129 64.1387 104.463C64.2021 104.444 64.2663 104.426 64.3296 104.403C67.2373 103.509 70.126 102.472 72.7712 101.447C73.9576 100.989 75.0946 100.53 76.1609 100.091C80.928 98.1227 84.2701 96.4903 84.2701 96.4903Z" fill="white"/>
<path opacity="0.35" d="M10.0109 119.267C14.43 125.586 24.6256 138.159 41.6157 141.625C52.2581 143.793 61.5841 142.2 68.2756 140.042C75.0667 137.853 79.1484 135.086 79.1484 135.086L79.4479 121.798C79.4479 121.798 74.8207 117.357 70.511 119.168C65.3326 121.343 66.9921 128.739 59.5963 130.796C39.0363 136.514 22.3342 126.067 16.96 121.48C9.50411 115.118 7.5591 111.11 6.51008 109.457C4.33881 106.035 2.66203 103.347 1.71667 100.939C0.753221 105.012 2.81012 108.968 10.0109 119.267Z" fill="#00227B"/>
<path d="M51.8683 144.148C48.3206 144.148 44.7876 143.793 41.3156 143.084C33.6779 141.526 26.5519 138.019 20.1369 132.658C16.0083 129.208 12.1882 124.988 8.78358 120.119C4.62863 114.175 1.98757 110.093 0.783047 106.813C-0.371287 103.67 -0.256924 101.12 1.17633 98.0095C2.58736 94.9463 4.72078 93.5377 6.01005 92.9337C6.22068 91.3587 7.04097 89.3157 9.18509 88.3569C15.2768 85.6314 22.3065 89.8492 25.786 92.4453C25.8197 92.2691 25.8575 92.0888 25.8978 91.9061C26.4746 89.3297 27.4701 87.5809 28.8565 86.7098C29.7081 86.1747 31.129 85.7117 33.0666 86.5451C35.0321 87.3908 36.4662 89.8812 37.4519 94.158C37.9562 96.3493 38.199 98.4062 38.2903 99.3174C39.3484 100.511 43.4836 104.739 49.3811 105.369C60.1469 106.518 83.3768 95.2651 83.6105 95.1512C84.1058 94.9095 84.6949 94.9586 85.1424 95.2799C85.59 95.6003 85.8245 96.1411 85.7529 96.6853L80.6337 135.281C80.5778 135.702 80.3449 136.079 79.992 136.318C79.8208 136.434 75.7152 139.19 68.8888 141.411C64.8902 142.713 60.7764 143.56 56.6626 143.931C55.0639 144.076 53.4645 144.148 51.8683 144.148ZM7.79874 95.4266C7.60539 95.479 5.32058 96.1608 3.89638 99.2519C1.97852 103.415 2.44996 105.841 11.2395 118.414C19.5033 130.235 30.1104 137.755 41.9154 140.163C52.6713 142.356 62.0138 140.511 67.9574 138.577C72.996 136.937 76.4705 134.981 77.7557 134.2L82.4257 98.9954C79.9862 100.105 75.9958 101.848 71.5175 103.52C61.5489 107.24 53.9927 108.859 49.0619 108.333C40.9272 107.465 35.8722 101.106 35.6607 100.836C35.4806 100.605 35.3719 100.326 35.3497 100.034C35.3481 100.01 35.1449 97.4654 34.5261 94.7923C33.4837 90.286 32.2364 89.4345 31.8793 89.2813C30.9858 88.897 30.5999 89.1387 30.4543 89.2297C29.1963 90.018 28.5151 93.2943 28.4328 95.3684C28.4097 95.9502 28.0477 96.4665 27.5072 96.6885C26.9658 96.9106 26.3454 96.7992 25.9168 96.4017C25.8279 96.3198 16.9034 88.1709 10.411 91.076C8.91522 91.7455 8.94237 93.7647 8.94649 93.9097C8.99092 94.6456 8.52194 95.2741 7.79874 95.4266Z" fill="#00227B"/>
<path d="M28.172 95.311C28.2066 95.7298 28.1441 96.1108 28.0602 96.4411C28.0182 96.6115 27.9664 96.759 27.9137 96.9106C27.8602 97.0524 27.8018 97.1966 27.7442 97.3253C27.5081 97.8547 27.253 98.2931 27.0103 98.7184C26.7668 99.1413 26.5323 99.5436 26.3143 99.9468L26.1546 100.25C26.1044 100.352 26.051 100.452 26.0024 100.555L25.8609 100.863L25.726 101.174L25.6034 101.491L25.4898 101.812C25.4512 101.919 25.4224 102.029 25.3878 102.138C25.3516 102.247 25.3245 102.359 25.2949 102.469C25.1813 102.915 25.0834 103.374 25.0266 103.847C24.9649 104.319 24.9254 104.803 24.9139 105.296C24.9016 105.543 24.9065 105.79 24.904 106.043C24.8999 106.169 24.9106 106.294 24.9114 106.421C24.9139 106.548 24.918 106.675 24.9172 106.803V106.812C24.9172 106.912 24.8366 106.992 24.7362 106.992C24.6663 106.992 24.6062 106.952 24.5766 106.894C24.3363 106.43 24.1191 105.949 23.9513 105.445C23.7744 104.944 23.6477 104.421 23.5547 103.886C23.3721 102.816 23.3762 101.683 23.5769 100.577L23.66 100.164C23.6921 100.028 23.7275 99.8927 23.7612 99.7559C23.7974 99.6206 23.8377 99.4879 23.8756 99.3527C23.9151 99.2191 23.962 99.0888 24.0056 98.9569C24.1858 98.4324 24.4087 97.9342 24.6383 97.4671C24.867 97.0008 25.1106 96.5607 25.308 96.1789C25.5162 95.7921 25.6338 95.4782 25.7029 95.3086L25.8477 94.9537C26.0995 94.3383 26.8046 94.0425 27.4225 94.2932C27.8594 94.4719 28.135 94.8742 28.172 95.311Z" fill="#00227B"/>
<path d="M39.972 142.648C39.5943 142.648 39.2299 142.44 39.0505 142.08C38.7971 141.574 39.0044 140.959 39.5129 140.707C43.6621 138.651 46.4973 132.234 47.7101 122.151C48.6505 114.336 48.2597 107.068 48.2556 106.996C48.2243 106.431 48.6579 105.948 49.2248 105.916C49.7892 105.884 50.2771 106.317 50.3092 106.881C50.3133 106.955 50.714 114.378 49.7555 122.367C49.1886 127.094 48.263 131.106 47.0041 134.289C45.3751 138.41 43.1627 141.186 40.4294 142.541C40.2822 142.614 40.1258 142.648 39.972 142.648Z" fill="#00227B"/>
<g opacity="0.35">
<g opacity="0.35">
<g opacity="0.35">
<g opacity="0.35">
<path opacity="0.35" d="M172.706 208.583V208.374C171.061 208.444 172.706 208.583 172.706 208.583Z" fill="#00227B"/>
</g>
</g>
</g>
</g>
<path d="M151.947 183.418H53.1416C53.1416 183.418 53.7439 166.434 59.5888 142.079C61.9312 132.31 65.1194 121.356 69.4487 109.836C70.4887 107.071 71.597 104.272 72.7719 101.446C76.0572 93.5639 79.8888 85.4913 84.3572 77.4186H120.732C124.426 84.0932 127.685 90.7646 130.559 97.3352C132.418 101.584 134.117 105.788 135.666 109.917C142.428 127.919 146.398 144.534 148.722 157.395C151.588 173.262 151.947 183.418 151.947 183.418Z" fill="white"/>
<path d="M138.382 122.584C140.292 124.707 141.165 127.179 141.971 129.661C142.376 130.902 142.775 132.146 143.156 133.396C143.347 134.021 143.543 134.644 143.713 135.274C143.888 135.903 144.058 136.534 144.23 137.164L144.73 139.058C144.894 139.69 145.061 140.321 145.215 140.956L146.124 144.766C146.272 145.402 146.435 146.034 146.579 146.671L147.013 148.58L147.458 150.487C147.608 151.122 147.762 151.756 147.902 152.394L148.76 156.215C148.907 156.851 149.034 157.492 149.169 158.13L149.571 160.047L149.772 161.005L149.872 161.484L149.966 161.965L150.342 163.886C150.467 164.527 150.596 165.167 150.732 165.806C150.862 166.446 150.993 167.086 151.129 167.725C151.702 170.276 152.12 172.86 152.293 175.477C152.316 175.804 152.341 176.13 152.357 176.459L152.399 177.443C152.42 178.1 152.438 178.757 152.428 179.418C152.424 180.078 152.409 180.738 152.367 181.401C152.328 182.064 152.273 182.727 152.172 183.395C152.154 183.523 152.033 183.612 151.903 183.593C151.815 183.58 151.746 183.52 151.717 183.443L151.716 183.44C151.244 182.19 150.858 180.935 150.493 179.679C150.314 179.052 150.141 178.422 149.974 177.794L149.734 176.849C149.658 176.533 149.58 176.219 149.501 175.903C149.195 174.642 148.925 173.377 148.682 172.107C148.566 171.471 148.459 170.834 148.362 170.195C148.258 169.556 148.162 168.917 148.062 168.278C147.965 167.638 147.863 167 147.759 166.361C147.649 165.724 147.526 165.088 147.402 164.453L147.029 162.548L146.936 162.072L146.837 161.597L146.638 160.647L146.24 158.747C146.105 158.114 145.979 157.479 145.833 156.848L144.982 153.059C144.846 152.426 144.686 151.798 144.536 151.169L144.071 149.283L143.594 147.401C143.517 147.087 143.429 146.775 143.345 146.463L143.089 145.526L142.062 141.781C141.706 140.536 141.342 139.294 140.996 138.047C140.823 137.423 140.651 136.799 140.483 136.174L140.358 135.705L140.225 135.238L139.964 134.303C139.616 133.057 139.286 131.805 138.961 130.551L138.723 129.609C138.643 129.295 138.555 128.983 138.471 128.67C138.304 128.044 138.164 127.41 138.059 126.765C137.954 126.119 137.881 125.464 137.853 124.793C137.838 124.458 137.837 124.119 137.849 123.775C137.862 123.43 137.884 123.082 137.945 122.722L137.948 122.709C137.971 122.572 138.1 122.481 138.237 122.504C138.295 122.514 138.346 122.544 138.382 122.584Z" fill="#00227B"/>
<path d="M52.9092 183.41C52.757 183.073 52.6525 182.738 52.5546 182.401C52.4567 182.063 52.3834 181.73 52.3184 181.394C52.1868 180.722 52.116 180.054 52.0765 179.388C52.0584 179.054 52.0461 178.721 52.0469 178.389C52.0477 178.058 52.0609 177.727 52.0765 177.397L52.1325 176.406C52.1498 176.076 52.1703 175.746 52.1975 175.416C52.3003 174.099 52.4007 172.779 52.5554 171.468C52.6253 170.811 52.7035 170.155 52.7808 169.499C52.8187 169.171 52.8697 168.845 52.9141 168.517L53.0532 167.536L53.3436 165.577C53.4456 164.925 53.5641 164.276 53.6752 163.625C53.9022 162.324 54.1162 161.022 54.3753 159.728C54.6271 158.433 54.8575 157.134 55.115 155.841C55.3766 154.548 55.6317 153.254 55.8834 151.96C55.9476 151.636 56.0052 151.311 56.0752 150.989L56.2825 150.022L56.6963 148.088L57.1102 146.155C57.1456 145.993 57.1777 145.832 57.2147 145.671L57.3282 145.19L57.5553 144.227L58.4628 140.376C58.536 140.055 58.6183 139.736 58.6998 139.416C58.7787 139.096 58.8594 138.776 58.9351 138.456C59.0881 137.814 59.2395 137.172 59.3851 136.529C59.534 135.887 59.6797 135.242 59.8335 134.601C59.9816 133.957 60.1676 133.325 60.3535 132.691C60.5436 132.06 60.7451 131.431 60.9566 130.805C61.1689 130.18 61.3943 129.558 61.6222 128.937L61.9744 128.01C62.0336 127.856 62.0994 127.703 62.1636 127.55C62.2286 127.398 62.2911 127.244 62.3586 127.092C62.6243 126.483 62.8934 125.877 63.1797 125.276C63.4627 124.674 63.7581 124.076 64.0683 123.485C64.3785 122.893 64.7002 122.305 65.0572 121.73C65.1255 121.619 65.2712 121.585 65.3822 121.654C65.4579 121.701 65.4982 121.783 65.4941 121.867V121.87C65.346 124.574 64.8376 127.148 64.3357 129.72C64.2065 130.362 64.0749 131.002 63.9301 131.64C63.7844 132.277 63.6281 132.91 63.4619 133.54C63.1147 134.797 62.7658 136.054 62.4022 137.307C62.2204 137.934 62.0435 138.562 61.8682 139.191C61.7794 139.504 61.6963 139.82 61.6115 140.135C61.5284 140.45 61.4428 140.765 61.3721 141.084L60.4745 144.893L60.2498 145.846L60.1379 146.322C60.1009 146.481 60.0688 146.64 60.0343 146.799L59.6245 148.713L59.2148 150.626L59.0099 151.584C58.9417 151.902 58.8841 152.224 58.8207 152.543C57.7692 157.656 57.0625 162.83 56.3755 167.994L56.1089 169.929C56.0258 170.575 55.9427 171.221 55.8522 171.866L55.3223 175.736C55.2261 176.381 55.1487 177.026 55.0615 177.671C55.0163 177.993 54.9685 178.316 54.9085 178.637C54.8492 178.958 54.7908 179.279 54.7184 179.6C54.5744 180.241 54.3959 180.88 54.1845 181.517C54.0791 181.836 53.9533 182.156 53.8241 182.474C53.6916 182.792 53.5476 183.111 53.3699 183.428L53.3683 183.432C53.2992 183.555 53.1437 183.599 53.0202 183.53C52.9684 183.5 52.9314 183.458 52.9092 183.41Z" fill="#00227B"/>
<path d="M81.5988 161.99C75.9637 164.263 67.2424 163.787 61.2971 163.07C57.7313 162.641 55.2276 159.363 55.7534 155.824C56.233 152.594 59.0872 150.245 62.361 150.398C67.922 150.658 76.264 150.779 81.5469 149.612" fill="white"/>
<g opacity="0.35">
<g opacity="0.35">
<g opacity="0.35">
<g opacity="0.35">
<path opacity="0.35" d="M81.6006 161.989C75.9639 164.265 67.2426 163.785 61.2973 163.073C57.7315 162.642 55.2286 159.363 55.7544 155.826C55.8589 155.104 56.0868 154.426 56.4101 153.808C57.3489 155.593 59.1269 156.909 61.2973 157.172C67.2319 157.889 75.9384 158.364 81.5759 156.103L81.6006 161.989Z" fill="#00227B"/>
</g>
</g>
</g>
</g>
<path d="M70.3953 165.153C67.1347 165.153 63.8931 164.885 61.1171 164.551C58.991 164.294 57.1044 163.219 55.8045 161.523C54.5021 159.823 53.9582 157.722 54.2725 155.606C54.5588 153.678 55.5478 151.934 57.0567 150.694C58.5673 149.452 60.4761 148.819 62.431 148.91C70.6232 149.292 77.2967 149.025 81.2221 148.158C82.0103 147.984 83.9684 147.978 85.1244 151.679C86.2985 155.44 86.1685 161.757 82.1608 163.373C78.8558 164.705 74.6103 165.153 70.3953 165.153ZM62.0575 151.882C59.6435 151.882 57.5915 153.633 57.2344 156.042C57.0394 157.354 57.3768 158.659 58.1847 159.714C58.9902 160.765 60.1594 161.431 61.4774 161.59C69.979 162.615 76.9264 162.266 81.0378 160.608C82.2587 160.116 82.6092 158.145 82.7038 157.321C83.033 154.436 82.1518 151.771 81.5997 151.126C76.2419 152.248 68.1681 152.162 62.292 151.888C62.213 151.884 62.1348 151.882 62.0575 151.882Z" fill="#00227B"/>
<path d="M124.703 161.99C130.338 164.263 139.059 163.787 145.005 163.07C148.571 162.641 151.074 159.363 150.548 155.824C150.069 152.594 147.215 150.245 143.941 150.398C138.38 150.658 130.038 150.779 124.755 149.612" fill="white"/>
<g opacity="0.35">
<g opacity="0.35">
<g opacity="0.35">
<g opacity="0.35">
<path opacity="0.35" d="M145.002 163.073C139.057 163.785 130.337 164.265 124.699 161.989L124.724 156.048C130.361 158.309 139.067 157.834 145.002 157.117C147.163 156.859 148.931 155.553 149.875 153.777C150.207 154.401 150.441 155.089 150.55 155.825C151.072 159.363 148.569 162.642 145.002 163.073Z" fill="#00227B"/>
</g>
</g>
</g>
</g>
<path d="M135.906 165.153C131.691 165.153 127.447 164.705 124.141 163.373C120.133 161.757 120.003 155.439 121.177 151.679C122.333 147.978 124.292 147.984 125.08 148.157C129.006 149.025 135.679 149.292 143.871 148.91C145.827 148.819 147.735 149.452 149.245 150.693C150.754 151.933 151.743 153.677 152.029 155.606C152.344 157.722 151.799 159.823 150.497 161.522C149.197 163.219 147.311 164.294 145.185 164.55C142.409 164.885 139.166 165.153 135.906 165.153ZM124.703 151.126C124.151 151.771 123.27 154.436 123.599 157.321C123.693 158.145 124.043 160.116 125.265 160.609C129.376 162.266 136.324 162.615 144.825 161.59C146.142 161.431 147.312 160.765 148.118 159.714C148.926 158.659 149.263 157.355 149.068 156.042C148.7 153.556 146.526 151.771 144.012 151.888C138.134 152.162 130.061 152.247 124.703 151.126Z" fill="#00227B"/>
<path d="M126.88 145.522V165.358C126.88 169.038 123.856 172.051 120.161 172.051H83.4831C79.793 172.051 76.7686 169.038 76.7686 165.358V145.522C76.7686 141.842 79.793 138.834 83.4831 138.834H120.161C122.336 138.834 124.278 139.878 125.51 141.485C126.369 142.608 126.88 144.008 126.88 145.522Z" fill="white"/>
<g opacity="0.35">
<g opacity="0.35">
<g opacity="0.35">
<g opacity="0.35">
<path opacity="0.35" d="M126.879 145.522V165.358C126.879 169.038 123.857 172.049 120.162 172.049H83.4845C79.7894 172.049 76.7666 169.038 76.7666 165.358V157.939C82.275 163.532 93.1083 167.044 103.044 167.096C106.236 167.113 108.812 164.599 109.039 161.426C109.042 161.394 109.044 161.362 109.047 161.331C109.291 158.548 111.592 156.295 114.39 156.094C117.576 155.865 120.265 158.209 120.58 161.255C125.389 155.342 123.981 145.064 125.51 141.485C126.37 142.609 126.879 144.008 126.879 145.522Z" fill="#00227B"/>
</g>
</g>
</g>
</g>
<path d="M120.162 173.541H83.4833C78.9548 173.541 75.2705 169.871 75.2705 165.361V145.522C75.2705 141.012 78.9548 137.342 83.4833 137.342H120.162C124.69 137.342 128.375 141.012 128.375 145.522V165.361C128.375 169.871 124.69 173.541 120.162 173.541ZM83.4833 140.323C80.6053 140.323 78.2637 142.655 78.2637 145.522V165.361C78.2637 168.227 80.6053 170.559 83.4833 170.559H120.162C123.04 170.559 125.382 168.227 125.382 165.361V145.522C125.382 142.655 123.04 140.323 120.162 140.323H83.4833Z" fill="#00227B"/>
<path d="M114.817 161.21C118.016 161.21 120.609 158.627 120.609 155.441C120.609 152.255 118.016 149.672 114.817 149.672C111.618 149.672 109.024 152.255 109.024 155.441C109.024 158.627 111.618 161.21 114.817 161.21Z" fill="#22A7F0"/>
<g opacity="0.7">
<g opacity="0.7">
<g opacity="0.7">
<g opacity="0.7">
<path opacity="0.7" d="M120.609 155.441C120.609 155.836 120.571 156.219 120.496 156.594C119.961 153.956 117.621 151.971 114.818 151.971C112.011 151.971 109.671 153.956 109.136 156.594C109.061 156.219 109.023 155.837 109.023 155.441C109.023 152.253 111.618 149.673 114.818 149.673C118.014 149.673 120.609 152.253 120.609 155.441Z" fill="white"/>
</g>
</g>
</g>
</g>
<g opacity="0.35">
<g opacity="0.35">
<g opacity="0.35">
<g opacity="0.35">
<path opacity="0.35" d="M120.608 155.44C120.608 158.625 118.015 161.208 114.817 161.208C111.619 161.208 109.026 158.625 109.026 155.44C109.026 154.703 109.165 154 109.424 153.353C110.258 155.505 112.359 157.028 114.818 157.028C117.276 157.028 119.377 155.505 120.212 153.353C120.469 154 120.608 154.703 120.608 155.44Z" fill="#00227B"/>
</g>
</g>
</g>
</g>
<path d="M114.817 162.328C111.004 162.328 107.902 159.238 107.902 155.441C107.902 151.643 111.004 148.554 114.817 148.554C118.63 148.554 121.731 151.643 121.731 155.441C121.731 159.238 118.63 162.328 114.817 162.328ZM114.817 150.79C112.242 150.79 110.148 152.877 110.148 155.441C110.148 158.005 112.242 160.091 114.817 160.091C117.391 160.091 119.486 158.005 119.486 155.441C119.486 152.877 117.391 150.79 114.817 150.79Z" fill="#00227B"/>
<path d="M98.4044 173.168C97.7841 173.168 97.2822 172.667 97.2822 172.05V158.463L89.9473 152.963V138.833C89.9473 138.215 90.45 137.715 91.0695 137.715C91.6891 137.715 92.1918 138.216 92.1918 138.833V151.847L99.5267 157.347V172.05C99.5267 172.667 99.024 173.168 98.4044 173.168Z" fill="#00227B"/>
<path d="M102.543 182.73C109.031 182.73 115.27 180.333 120.143 176.065C126.893 170.155 138.256 163.107 150.799 167.628C155.831 169.441 159.261 172.767 161.601 176.447C167.626 162.541 180.267 161.707 185.739 169.589C185.739 169.589 176.542 213.29 173.545 214.263C169.251 215.656 158.933 214.191 158.933 214.191C158.933 214.191 123.039 209.351 102.543 209.351C82.0461 209.351 46.1523 214.191 46.1523 214.191C46.1523 214.191 35.8348 215.655 31.5408 214.263C28.5435 213.29 19.3467 169.589 19.3467 169.589C24.8172 161.707 37.459 162.541 43.4849 176.447C45.824 172.766 49.2541 169.441 54.2869 167.628C66.8291 163.107 78.1923 170.155 84.9422 176.065C89.8154 180.332 96.0544 182.73 102.543 182.73Z" fill="white"/>
<g opacity="0.35">
<path d="M185.74 169.588C185.74 169.588 176.542 213.29 173.545 214.263C169.252 215.657 158.933 214.192 158.933 214.192C158.933 214.192 123.04 209.351 102.542 209.351C82.048 209.351 46.1517 214.192 46.1517 214.192C46.1517 214.192 35.8351 215.657 31.5436 214.263C28.5463 213.29 19.3486 169.588 19.3486 169.588C20.2504 168.29 21.343 167.228 22.5706 166.424C25.5193 179.237 29.7023 195.967 31.5436 196.564C35.8359 197.954 46.1517 196.489 46.1517 196.489C46.1517 196.489 82.048 186.806 102.542 186.806C123.04 186.806 158.933 196.489 158.933 196.489C158.933 196.489 169.252 197.954 173.545 196.564C175.386 195.967 179.569 179.237 182.518 166.424C183.745 167.229 184.838 168.291 185.74 169.588Z" fill="#00227B"/>
</g>
<path d="M37.0749 216.35C34.8238 216.35 32.6246 216.182 31.0778 215.681C30.023 215.338 29.1361 214.174 27.4716 209.009C26.4975 205.986 25.3283 201.777 23.9979 196.498C21.6021 186.993 19.2671 176.333 18.3744 172.192C17.907 170.023 18.6204 167.781 20.2371 166.34C23.3405 163.573 27.5004 162.507 31.6488 163.417C34.2635 163.991 36.8075 165.35 39.0059 167.349C40.8267 169.005 42.4097 171.073 43.7294 173.519C46.4075 170.115 49.7792 167.667 53.7794 166.226C58.312 164.592 63.0544 164.267 67.8758 165.262C71.7683 166.065 75.7266 167.729 79.6396 170.21C80.3373 170.653 80.5422 171.574 80.0988 172.269C79.6553 172.964 78.7297 173.168 78.032 172.726C69.978 167.619 62.1609 166.376 54.798 169.03C50.6455 170.527 47.2648 173.29 44.7513 177.246C44.4543 177.713 43.9211 177.977 43.369 177.935C42.8161 177.891 42.3323 177.547 42.1118 177.039C39.5942 171.228 35.5462 167.325 31.0054 166.33C27.8081 165.629 24.6109 166.443 22.2339 168.563C21.4161 169.292 21.059 170.443 21.3017 171.568C22.1443 175.477 24.3525 185.563 26.653 194.778C27.9176 199.843 29.0382 203.965 29.9843 207.025C31.309 211.312 32.0009 212.569 32.2469 212.92C35.6285 213.864 43.2341 213.102 45.9426 212.717C45.9459 212.717 45.9492 212.717 45.9525 212.716C46.312 212.667 82.182 207.862 102.544 207.862C122.906 207.862 158.775 212.667 159.135 212.716C159.138 212.717 159.142 212.717 159.146 212.717C161.855 213.102 169.46 213.864 172.841 212.92C173.083 212.576 173.756 211.355 175.036 207.243C175.96 204.278 177.054 200.283 178.288 195.367C180.488 186.603 182.597 177.067 183.658 172.163C184.006 170.556 183.401 168.909 182.118 167.967C179.669 166.168 176.633 165.631 173.571 166.455C169.184 167.636 165.422 171.395 162.976 177.04C162.757 177.547 162.273 177.892 161.719 177.936C161.165 177.979 160.634 177.713 160.337 177.246C157.823 173.292 154.443 170.527 150.291 169.031C142.863 166.354 134.979 167.64 126.856 172.855C126.161 173.301 125.235 173.101 124.787 172.409C124.339 171.717 124.539 170.795 125.235 170.348C129.172 167.821 133.155 166.12 137.075 165.291C141.944 164.262 146.733 164.577 151.31 166.227C155.31 167.668 158.682 170.117 161.36 173.521C164.172 168.316 168.166 164.821 172.79 163.577C176.694 162.525 180.741 163.251 183.895 165.566C186.125 167.204 187.18 170.039 186.585 172.791C185.462 177.986 183.234 188.052 180.941 197.088C179.642 202.213 178.5 206.295 177.548 209.222C175.924 214.215 175.052 215.345 174.01 215.682C169.458 217.159 159.25 215.744 158.73 215.67C158.167 215.595 122.645 210.844 102.545 210.844C82.4403 210.844 46.9217 215.595 46.3589 215.67C46.0134 215.717 41.4479 216.35 37.0749 216.35Z" fill="#00227B"/>
<path d="M170.879 214.263H173.545C176.675 214.263 179.512 212.435 180.787 209.588C184.777 200.688 192.053 181.131 185.238 169.197C185.04 168.848 184.827 168.513 184.603 168.192C184.603 168.192 178.06 162.265 173.36 170.65C168.969 178.483 159.754 211.976 170.879 214.263Z" fill="#AFAFB2"/>
<g opacity="0.7">
<g opacity="0.7">
<g opacity="0.7">
<g opacity="0.7">
<path opacity="0.7" d="M170.953 176.233C171.071 176.045 171.188 175.868 171.303 175.703C177.082 167.318 185.128 173.246 185.128 173.246C185.403 173.567 185.666 173.902 185.908 174.25C186.715 175.399 187.36 176.618 187.864 177.894C187.538 174.759 186.725 171.796 185.239 169.197C185.04 168.849 184.828 168.514 184.604 168.193C184.604 168.193 178.061 162.265 173.361 170.65C172.647 171.92 171.81 173.859 170.953 176.233Z" fill="white"/>
</g>
</g>
</g>
</g>
<path d="M187.829 178.788C187.761 178.788 187.693 178.782 187.624 178.771L171.271 176.052C170.598 175.94 170.144 175.307 170.256 174.636C170.368 173.967 171.005 173.515 171.676 173.626L188.029 176.345C188.702 176.456 189.156 177.09 189.044 177.76C188.944 178.363 188.421 178.788 187.829 178.788Z" fill="#00227B"/>
<path d="M187.725 187.588C187.669 187.588 187.614 187.585 187.558 187.577L168.428 185.015C167.753 184.925 167.279 184.306 167.369 183.633C167.46 182.96 168.081 182.488 168.757 182.579L187.888 185.14C188.563 185.23 189.037 185.849 188.946 186.522C188.863 187.14 188.333 187.588 187.725 187.588Z" fill="#00227B"/>
<path d="M186.037 196.207C185.987 196.207 185.937 196.204 185.886 196.198L166.466 193.831C165.79 193.748 165.309 193.135 165.391 192.462C165.474 191.788 166.089 191.308 166.766 191.391L186.186 193.758C186.862 193.841 187.343 194.454 187.261 195.127C187.184 195.751 186.652 196.207 186.037 196.207Z" fill="#00227B"/>
<path d="M182.957 205.608C182.92 205.608 182.882 205.606 182.844 205.603L165.483 204.042C164.804 203.982 164.304 203.383 164.364 202.707C164.425 202.031 165.026 201.532 165.705 201.594L183.067 203.154C183.745 203.215 184.246 203.813 184.185 204.489C184.127 205.127 183.588 205.608 182.957 205.608Z" fill="#00227B"/>
<g opacity="0.35">
<g opacity="0.35">
<g opacity="0.35">
<g opacity="0.35">
<path opacity="0.35" d="M170.878 214.263H173.544C176.674 214.263 179.511 212.435 180.786 209.588C181.818 207.281 183.072 204.264 184.246 200.845C182.645 203.49 179.394 205.167 175.824 205.167H172.646C168.124 204.387 166.423 199.97 166.356 194.181C164.827 203.953 165.246 213.105 170.878 214.263Z" fill="#00227B"/>
</g>
</g>
</g>
</g>
<path d="M173.545 215.492H170.88C170.796 215.492 170.713 215.484 170.63 215.467C168.476 215.023 166.847 213.632 165.79 211.33C163.298 205.903 164.509 196.449 165.965 189.474C167.743 180.95 170.49 173.25 172.283 170.051C173.932 167.109 176.01 165.415 178.457 165.017C182.21 164.408 185.304 167.165 185.434 167.282C185.503 167.344 185.564 167.413 185.616 167.488C185.862 167.839 186.097 168.21 186.313 168.589C189.428 174.044 190.089 181.505 188.278 190.764C186.805 198.292 184.005 205.428 181.915 210.089C180.445 213.371 177.161 215.492 173.545 215.492ZM171.014 213.034H173.545C176.187 213.034 178.587 211.485 179.66 209.088C181.697 204.544 184.426 197.595 185.854 190.296C187.55 181.63 186.981 174.736 184.166 169.805C184.013 169.536 183.85 169.274 183.679 169.023C183.217 168.647 181.116 167.068 178.84 167.446C177.18 167.722 175.699 169.002 174.439 171.249C172.779 174.211 170.092 181.781 168.382 189.974C166.431 199.326 166.308 206.547 168.035 210.308C168.736 211.835 169.711 212.728 171.014 213.034Z" fill="#00227B"/>
<path d="M34.2082 214.263H31.5425C28.4127 214.263 25.575 212.435 24.3005 209.588C20.3101 200.688 13.0345 181.131 19.8494 169.197C20.0477 168.848 20.2599 168.513 20.4846 168.192C20.4846 168.192 27.0272 162.265 31.7276 170.65C36.1179 178.483 45.3328 211.976 34.2082 214.263Z" fill="#AFAFB2"/>
<g opacity="0.7">
<g opacity="0.7">
<g opacity="0.7">
<g opacity="0.7">
<path opacity="0.7" d="M34.1337 176.233C34.016 176.045 33.8984 175.868 33.784 175.703C28.0049 167.318 19.9592 173.246 19.9592 173.246C19.6835 173.567 19.4211 173.902 19.1792 174.25C18.3721 175.399 17.727 176.618 17.2227 177.894C17.5485 174.759 18.3622 171.796 19.8481 169.197C20.0464 168.849 20.2586 168.514 20.4833 168.193C20.4833 168.193 27.0259 162.265 31.7263 170.65C32.4388 171.92 33.2764 173.859 34.1337 176.233Z" fill="white"/>
</g>
</g>
</g>
</g>
<path d="M17.2584 178.788C16.666 178.788 16.1436 178.362 16.0424 177.761C15.9305 177.091 16.3838 176.458 17.0568 176.346L33.41 173.627C34.0822 173.515 34.7182 173.967 34.8301 174.637C34.942 175.307 34.4887 175.94 33.8156 176.052L17.4624 178.771C17.3942 178.783 17.3259 178.788 17.2584 178.788Z" fill="#00227B"/>
<path d="M17.3618 187.588C16.7529 187.588 16.2231 187.14 16.14 186.523C16.0495 185.85 16.5234 185.231 17.1989 185.141L36.3297 182.579C37.0061 182.488 37.6264 182.96 37.7177 183.633C37.8083 184.306 37.3343 184.925 36.6589 185.015L17.528 187.577C17.472 187.585 17.4169 187.588 17.3618 187.588Z" fill="#00227B"/>
<path d="M19.0502 196.207C18.4356 196.207 17.9032 195.751 17.8267 195.127C17.7436 194.454 18.2249 193.841 18.9021 193.758L38.3217 191.39C38.998 191.309 39.6135 191.787 39.6966 192.462C39.7797 193.135 39.2983 193.748 38.6212 193.831L19.2015 196.198C19.1505 196.205 19.0995 196.207 19.0502 196.207Z" fill="#00227B"/>
<path d="M22.13 205.607C21.4982 205.607 20.9601 205.127 20.9025 204.489C20.8416 203.813 21.3418 203.215 22.0206 203.154L39.3825 201.594C40.0621 201.533 40.6611 202.031 40.7228 202.707C40.7837 203.383 40.2834 203.981 39.6047 204.042L22.2428 205.603C22.2049 205.606 22.1671 205.607 22.13 205.607Z" fill="#00227B"/>
<g opacity="0.35">
<g opacity="0.35">
<g opacity="0.35">
<g opacity="0.35">
<path opacity="0.35" d="M34.2073 214.263H31.5415C28.4117 214.263 25.574 212.435 24.2996 209.588C23.2678 207.281 22.0131 204.264 20.8398 200.845C22.4401 203.49 25.6917 205.167 29.2616 205.167H32.4391C36.961 204.387 38.6625 199.97 38.73 194.181C40.2587 203.953 39.8382 213.105 34.2073 214.263Z" fill="#00227B"/>
</g>
</g>
</g>
</g>
<path d="M34.2077 215.492H31.542C27.9276 215.492 24.6423 213.371 23.1728 210.088C21.0838 205.429 18.2832 198.293 16.8104 190.765C14.9995 181.506 15.6602 174.045 18.7752 168.589C18.9916 168.21 19.2261 167.84 19.4712 167.489C19.5239 167.413 19.5848 167.345 19.6531 167.283C19.7831 167.165 22.8775 164.408 26.6309 165.018C29.0778 165.416 31.1553 167.109 32.8041 170.051C34.5977 173.251 37.3441 180.95 39.1229 189.475C40.5784 196.45 41.7895 205.904 39.2973 211.331C38.2401 213.633 36.6118 215.024 34.457 215.468C34.3747 215.484 34.2908 215.492 34.2077 215.492ZM21.4072 169.024C21.2369 169.274 21.074 169.536 20.9209 169.804C18.1055 174.735 17.5369 181.629 19.2326 190.296C20.6609 197.596 23.3884 204.544 25.4264 209.088C26.5001 211.486 28.9001 213.034 31.5411 213.034H34.0728C35.3752 212.729 36.351 211.836 37.052 210.308C38.779 206.547 38.6564 199.325 36.7056 189.974C34.9959 181.78 32.3088 174.211 30.6484 171.249C29.3888 169.002 27.9078 167.722 26.2475 167.446C23.975 167.069 21.8753 168.643 21.4072 169.024Z" fill="#00227B"/>
<path d="M64.2989 213.141C64.1236 213.141 63.9459 213.1 63.7797 213.013C63.2301 212.727 63.0179 212.051 63.3058 211.504C67.9931 202.584 68.0622 192.552 63.5115 181.688C60.0789 173.494 55.1638 167.887 55.1144 167.831C54.7047 167.368 54.7491 166.662 55.214 166.253C55.6788 165.845 56.388 165.888 56.7978 166.351C57.0076 166.588 61.9762 172.246 65.5569 180.764C67.6698 185.789 68.8479 190.763 69.0602 195.546C69.3268 201.56 68.0597 207.278 65.2944 212.54C65.0937 212.923 64.7029 213.141 64.2989 213.141Z" fill="#00227B"/>
<path d="M141.243 213.141C140.839 213.141 140.449 212.923 140.248 212.541C137.483 207.278 136.215 201.561 136.482 195.547C136.694 190.764 137.873 185.79 139.985 180.764C143.566 172.247 148.535 166.588 148.744 166.352C149.155 165.889 149.864 165.845 150.329 166.254C150.794 166.662 150.838 167.368 150.428 167.831C150.378 167.887 145.463 173.494 142.031 181.688C137.48 192.553 137.549 202.584 142.236 211.504C142.524 212.051 142.311 212.726 141.763 213.013C141.596 213.1 141.419 213.141 141.243 213.141Z" fill="#00227B"/>
<g opacity="0.35">
<path d="M139.74 105.726C138.445 107.202 137.083 108.603 135.665 109.919C132.297 113.042 128.607 115.7 124.66 117.806C117.991 121.369 110.594 123.367 102.803 123.403C95.1916 123.437 87.9471 121.596 81.3807 118.249C77.0809 116.054 73.0733 113.217 69.4474 109.837C67.6439 108.152 65.9333 106.337 64.3281 104.403C67.2358 103.509 70.1245 102.472 72.7697 101.447C76.0549 93.5647 79.8865 85.4921 84.355 77.4194H120.73C124.423 84.094 127.682 90.7654 130.556 97.3359C133.296 98.9274 136.451 101.924 139.74 105.726Z" fill="#00227B"/>
</g>
<path d="M158.09 69.7335C157.456 69.8015 156.888 69.3451 156.82 68.7141L153.269 35.8089C153.201 35.1779 153.659 34.6116 154.293 34.5436C160.938 33.8323 166.904 38.6213 167.618 45.2402L168.83 56.4613C169.545 63.0802 164.735 69.0222 158.09 69.7335Z" fill="white"/>
<path d="M157.964 70.0236C157.637 70.0236 157.322 69.9138 157.065 69.7065C156.765 69.4664 156.578 69.1247 156.537 68.7444L152.987 35.8392C152.946 35.459 153.056 35.0853 153.297 34.7878C153.538 34.4903 153.881 34.3035 154.263 34.2625C161.055 33.5356 167.172 38.4468 167.902 45.2107L169.112 56.4318C169.466 59.7081 168.517 62.9253 166.441 65.4911C164.365 68.0569 161.41 69.6639 158.12 70.0163L158.09 69.7344L158.12 70.0163C158.068 70.0212 158.016 70.0236 157.964 70.0236ZM155.595 34.7567C155.175 34.7567 154.751 34.7788 154.324 34.8247C154.093 34.8493 153.885 34.9624 153.74 35.1418C153.594 35.3221 153.528 35.5475 153.552 35.7777L157.102 68.683C157.127 68.9133 157.241 69.1198 157.422 69.2648C157.603 69.4099 157.829 69.4762 158.06 69.4517C161.199 69.1157 164.018 67.5824 165.999 65.1347C167.98 62.6869 168.885 59.6171 168.548 56.4908L167.338 45.2697C166.686 39.2425 161.55 34.7567 155.595 34.7567Z" fill="#00227B"/>
<g opacity="0.35">
<g opacity="0.35">
<g opacity="0.35">
<g opacity="0.35">
<path opacity="0.35" d="M168.262 51.1994L168.832 56.4621C169.545 63.0785 164.737 69.0222 158.09 69.7359C157.457 69.8048 156.888 69.3442 156.82 68.714L155.873 59.967C156.094 60.3464 156.525 60.5791 156.99 60.5332L157.773 60.4472C163.024 59.8858 167.131 56.0548 168.262 51.1994Z" fill="#00227B"/>
</g>
</g>
</g>
</g>
<path d="M157.963 71.3176C157.341 71.3176 156.742 71.1078 156.251 70.7136C155.681 70.2572 155.325 69.6065 155.247 68.8829L151.697 35.9777C151.619 35.2541 151.828 34.5428 152.287 33.9757C152.745 33.4086 153.398 33.0538 154.125 32.976C161.627 32.1729 168.387 37.5995 169.194 45.0723L170.404 56.2933C170.795 59.913 169.747 63.4678 167.453 66.3032C165.159 69.1378 161.894 70.9136 158.259 71.302C158.161 71.3119 158.062 71.3176 157.963 71.3176ZM157.923 68.1659H157.923C157.923 68.1659 157.923 68.1659 157.923 68.1659ZM154.892 36.0744L158.349 68.1126C160.971 67.7258 163.316 66.3917 164.989 64.3242C166.752 62.1452 167.558 59.4131 167.258 56.6301L166.047 45.4091C165.443 39.8071 160.486 35.7007 154.892 36.0744Z" fill="#00227B"/>
<path d="M45.2448 46.2153C45.8784 46.1473 46.4469 46.6038 46.5152 47.2348L50.0654 80.14C50.1337 80.771 49.6754 81.3373 49.0419 81.4053C42.3964 82.1166 36.4306 77.3276 35.7164 70.7087L34.5061 59.4876C33.7903 52.8687 38.5994 46.9266 45.2448 46.2153Z" fill="white"/>
<path d="M47.7384 81.7585C41.4969 81.7593 36.1135 77.0572 35.4323 70.739L34.222 59.5179C33.4922 52.754 38.423 46.6604 45.2141 45.9335L45.2446 46.2154L45.2141 45.9335C46.0015 45.8491 46.7124 46.4194 46.7971 47.2045L50.3473 80.1097C50.4321 80.8948 49.8594 81.602 49.0712 81.6864C48.6245 81.7348 48.1785 81.7585 47.7384 81.7585ZM45.368 46.4915C45.3367 46.4915 45.3063 46.4932 45.2742 46.4965C38.7949 47.1897 34.0904 53.0039 34.7872 59.4573L35.9975 70.6784C36.6936 77.1318 42.5303 81.8175 49.0104 81.1243C49.4867 81.0734 49.8331 80.6457 49.7821 80.1712L46.2319 47.2659C46.1842 46.8218 45.8057 46.4915 45.368 46.4915Z" fill="#00227B"/>
<g opacity="0.35">
<g opacity="0.35">
<g opacity="0.35">
<g opacity="0.35">
<path opacity="0.35" d="M49.0839 71.0111L50.0679 80.1401C50.137 80.7711 49.6746 81.3374 49.0419 81.4054C45.5534 81.7774 42.2492 80.6359 39.7957 78.5069C37.58 76.5844 36.0579 73.8523 35.7181 70.7104L35.208 65.982C37.5422 69.9286 42.0567 72.3682 46.9291 71.8478L48.1344 71.7183C48.5738 71.6708 48.9218 71.3881 49.0839 71.0111Z" fill="#00227B"/>
</g>
</g>
</g>
</g>
<path d="M47.7381 83.0516C40.8417 83.0524 34.8948 77.8578 34.1419 70.8767L32.9317 59.6556C32.1254 52.1828 37.5737 45.45 45.0765 44.6469C46.5755 44.4863 47.9282 45.5712 48.0894 47.0652L51.6396 79.9712C51.8009 81.4659 50.7116 82.8115 49.2108 82.9721C48.7164 83.0262 48.2243 83.0516 47.7381 83.0516ZM44.9876 47.8371C39.4422 48.6566 35.4748 53.7177 36.0787 59.3196L37.289 70.5407C37.8937 76.1426 42.8501 80.2482 48.444 79.8753L44.9876 47.8371Z" fill="#00227B"/>
<path d="M101.673 114.37C132.945 114.37 158.296 89.1208 158.296 57.974C158.296 26.8272 132.945 1.57767 101.673 1.57767C70.4015 1.57767 45.0508 26.8272 45.0508 57.974C45.0508 89.1208 70.4015 114.37 101.673 114.37Z" fill="white"/>
<path d="M101.619 114.655C94.6763 114.655 87.8943 113.415 81.4282 110.961C74.5524 108.351 68.3232 104.485 62.9119 99.4715C57.5006 94.4571 53.1811 88.547 50.0719 81.9052C46.8533 75.0281 45.0811 67.6643 44.8038 60.0178C44.5265 52.3713 45.7615 44.8993 48.4741 37.8092C51.0938 30.9608 54.9756 24.7566 60.0092 19.3669C65.0429 13.9772 70.9783 9.6741 77.6476 6.5773C84.5522 3.37152 91.9456 1.60636 99.6227 1.3302C107.3 1.05404 114.802 2.28407 121.92 4.98588C128.796 7.59509 135.025 11.4614 140.437 16.4749C145.848 21.4893 150.167 27.3994 153.277 34.0412C156.495 40.9183 158.268 48.2821 158.545 55.9286C158.822 63.5751 157.587 71.0471 154.874 78.1372C152.255 84.9856 148.373 91.1898 143.339 96.5795C138.304 101.969 132.37 106.271 125.702 109.368C118.797 112.574 111.404 114.339 103.727 114.615C103.022 114.642 102.319 114.655 101.619 114.655ZM101.7 1.85958C101.016 1.85958 100.333 1.87187 99.6425 1.89646C68.598 3.01258 44.2525 29.076 45.3723 59.9965C45.9145 74.9749 52.281 88.8469 63.2986 99.056C73.8061 108.793 87.3463 114.087 101.623 114.088C102.316 114.088 103.008 114.075 103.704 114.05C118.743 113.51 132.671 107.169 142.921 96.1952C153.171 85.2216 158.517 70.9291 157.975 55.9507C156.88 25.717 131.834 1.85958 101.7 1.85958Z" fill="#00227B"/>
<g opacity="0.35">
<g opacity="0.35">
<g opacity="0.35">
<g opacity="0.35">
<path opacity="0.35" d="M157.435 48.1584C157.888 50.6938 158.165 53.2916 158.261 55.941C159.384 87.0671 134.966 113.21 103.715 114.335C72.4638 115.454 46.2161 91.1325 45.0864 60.0072C45.0535 59.1123 45.042 58.2158 45.0527 57.3316C49.8609 84.63 74.2616 104.904 102.855 103.877C133.207 102.785 157.111 78.0947 157.435 48.1584Z" fill="#00227B"/>
</g>
</g>
</g>
</g>
<path d="M101.618 115.948C94.5172 115.948 87.5805 114.679 80.9663 112.169C73.9342 109.5 67.5619 105.546 62.028 100.418C56.4941 95.2897 52.0759 89.2444 48.8959 82.4509C45.6032 75.4166 43.7907 67.8839 43.5076 60.0637C43.2246 52.2434 44.4875 44.6002 47.2627 37.3478C49.9425 30.3438 53.9123 23.9969 59.0611 18.4851C64.21 12.9733 70.2778 8.57193 77.0993 5.40548C84.1619 2.12594 91.7248 0.320632 99.5764 0.0387326C107.429 -0.243167 115.102 1.01473 122.383 3.77882C129.415 6.44785 135.788 10.4018 141.322 15.5301C146.856 20.6584 151.274 26.7036 154.454 33.4971C157.746 40.5315 159.559 48.0641 159.842 55.8844C160.125 63.7046 158.862 71.3479 156.087 78.6002C153.407 85.6043 149.437 91.9511 144.289 97.4629C139.14 102.975 133.07 107.375 126.249 110.543C119.187 113.822 111.624 115.627 103.772 115.909C103.053 115.935 102.334 115.948 101.618 115.948ZM101.701 3.15356C101.032 3.15356 100.365 3.16585 99.6907 3.18962C69.3613 4.27952 45.5769 29.7423 46.6712 59.9506C47.201 74.584 53.4211 88.1356 64.1845 98.1103C74.4501 107.623 87.6776 112.795 101.626 112.795C102.302 112.795 102.98 112.783 103.66 112.758C118.352 112.231 131.958 106.035 141.972 95.3151C151.987 84.5947 157.21 70.6316 156.679 55.9983C155.609 26.4603 131.139 3.15356 101.701 3.15356Z" fill="#00227B"/>
<path d="M158.132 57.3947C158.699 68.4158 155.633 78.8322 149.925 87.6112C145.646 94.1932 127.285 106.267 103.917 107.669C82.2491 108.968 61.9343 98.4627 57.0027 92.351C50.4239 84.1981 46.306 74.1488 45.7391 63.1277C44.2392 33.9618 68.7764 20.5871 99.8151 19.0039C130.852 17.4206 156.633 28.2287 158.132 57.3947Z" fill="#3949AB"/>
<path d="M100.155 108.864C89.3814 108.864 80.011 106.19 73.7909 103.8C65.9146 100.774 58.991 96.5468 56.1533 93.0296C49.1887 84.3989 45.2114 74.0776 44.6511 63.1826C44.2792 55.9532 45.4764 49.3933 48.2071 43.6848C50.7782 38.3124 54.7217 33.6577 59.9298 29.8488C69.4442 22.8898 83.2164 18.7654 99.7572 17.9222C116.299 17.0789 130.422 19.7799 140.6 25.7342C146.171 28.9933 150.572 33.2226 153.68 38.3058C156.983 43.7062 158.846 50.1103 159.217 57.3398C159.778 68.2347 156.879 78.9059 150.837 88.2004C148.327 92.0618 142.091 96.7951 134.565 100.552C127.954 103.852 117.281 107.953 103.98 108.75C102.689 108.827 101.412 108.864 100.155 108.864ZM105.598 19.9373C103.725 19.9373 101.816 19.9864 99.8691 20.0856C83.7537 20.9075 70.3888 24.8877 61.2174 31.5951C50.9782 39.0843 46.1354 49.6752 46.824 63.072C47.3605 73.5088 51.1732 83.3991 57.849 91.6725C59.8352 94.1342 65.4069 98.2578 74.5742 101.779C81.3183 104.369 91.8711 107.306 103.85 106.588C116.783 105.812 127.163 101.823 133.592 98.6143C142.207 94.3137 147.283 89.682 149.013 87.0228C154.805 78.1135 157.583 67.8872 157.047 57.4504C156.358 44.0536 150.454 34.0109 139.5 27.6026C130.873 22.5563 119.235 19.9373 105.598 19.9373Z" fill="#00227B"/>
<g opacity="0.5">
<g opacity="0.5">
<g opacity="0.5">
<g opacity="0.5">
<path d="M146.859 55.2866C147.566 49.8198 144.914 44.9746 140.937 44.4645C136.96 43.9545 133.163 47.9727 132.456 53.4396C131.75 58.9064 134.401 63.7516 138.378 64.2616C142.355 64.7717 146.152 60.7534 146.859 55.2866Z" fill="white"/>
</g>
</g>
</g>
</g>
<g opacity="0.5">
<g opacity="0.5">
<g opacity="0.5">
<g opacity="0.5">
<path d="M135.605 75.6067C136.274 73.1663 135.113 70.724 133.01 70.1518C130.908 69.5795 128.66 71.0939 127.991 73.5342C127.321 75.9746 128.483 78.4169 130.585 78.9892C132.688 79.5614 134.935 78.0471 135.605 75.6067Z" fill="white"/>
</g>
</g>
</g>
</g>
<g opacity="0.35">
<path d="M145.803 30.7429C153.009 36.9218 157.528 45.6795 158.132 57.3931C158.699 68.4167 155.631 78.8322 149.927 87.6113C145.646 94.1933 127.283 106.267 103.915 107.671C95.6644 108.169 87.612 106.951 80.5264 104.913C109.214 102.577 131.575 87.767 136.882 79.6034C144.128 68.4609 148.018 55.2395 147.297 41.2543C147.108 37.5159 146.595 34.0159 145.803 30.7429Z" fill="#00227B"/>
</g>
<path d="M48.6909 39.5579C48.3717 39.5579 48.0508 39.4588 47.776 39.2531C47.1293 38.768 46.9804 37.869 47.4206 37.206C49.7704 33.3611 52.771 29.8471 56.3385 26.7626C59.8122 23.7601 63.852 21.1386 68.3451 18.9711C72.7444 16.8494 77.6069 15.1499 82.7969 13.919C87.94 12.6996 93.4303 11.9342 99.1172 11.6441C104.71 11.359 110.191 11.5515 115.406 12.2153C120.669 12.8856 125.673 14.0386 130.278 15.6407C134.99 17.2805 139.302 19.398 143.093 21.9343C146.99 24.5419 150.361 27.6083 153.114 31.0493C153.595 31.5795 153.644 32.3916 153.194 32.9816C152.686 33.6487 151.73 33.7782 151.061 33.2717L150.901 33.1537L150.781 33.0013C140.588 20.2044 121.813 13.524 99.2727 14.6737C76.6072 15.83 58.648 24.6312 49.9991 38.8204L49.9596 38.8851L49.9078 38.9532C49.61 39.349 49.1533 39.5579 48.6909 39.5579Z" fill="#00227B"/>
<g opacity="0.5">
<g opacity="0.5">
<g opacity="0.5">
<g opacity="0.5">
<path d="M59.251 79.8344C59.251 79.8344 48.7024 51.5248 63.6816 39.2647C78.6608 27.0045 101.062 25.9088 100.612 27.3659C100.612 27.3659 76.1225 34.61 67.4235 54.6298C60.7155 70.0679 59.251 79.8344 59.251 79.8344Z" fill="white"/>
</g>
</g>
</g>
</g>
<path d="M152.989 217.508H52.5664C49.3148 217.508 46.6787 214.882 46.6787 211.644C46.6787 209.778 48.1975 208.265 50.071 208.265H155.485C157.358 208.265 158.877 209.778 158.877 211.644C158.877 214.883 156.241 217.508 152.989 217.508Z" fill="#E6E9FA"/>
<g opacity="0.3">
<g opacity="0.3">
<g opacity="0.3">
<g opacity="0.3">
<path opacity="0.3" d="M158.876 211.645C158.876 212.285 158.771 212.901 158.58 213.479C158.053 212.297 156.866 211.477 155.486 211.477H50.0718C49.1363 211.477 48.2872 211.853 47.6734 212.469C47.3814 212.76 47.1419 213.099 46.9741 213.479C46.7832 212.902 46.6787 212.287 46.6787 211.645C46.6787 210.714 47.0564 209.868 47.6743 209.257C48.288 208.642 49.1371 208.265 50.0726 208.265H155.486C157.36 208.264 158.876 209.777 158.876 211.645Z" fill="white"/>
</g>
</g>
</g>
</g>
<g opacity="0.35">
<g opacity="0.35">
<g opacity="0.35">
<g opacity="0.35">
<path opacity="0.35" d="M158.875 211.645C158.875 213.262 158.217 214.731 157.15 215.789C156.087 216.851 154.613 217.507 152.989 217.507H52.5679C49.3163 217.507 46.6777 214.883 46.6777 211.645C46.6777 211.022 46.8464 210.437 47.1451 209.934C48.0353 212.032 50.1309 213.508 52.5671 213.508H152.988C154.613 213.508 156.087 212.853 157.149 211.79C157.681 211.26 158.111 210.631 158.406 209.934C158.707 210.437 158.875 211.022 158.875 211.645Z" fill="#00227B"/>
</g>
</g>
</g>
</g>
<path d="M152.99 218.999H52.5669C48.4951 218.999 45.1826 215.7 45.1826 211.645C45.1826 208.96 47.3761 206.775 50.0715 206.775H155.485C158.181 206.775 160.374 208.96 160.374 211.645C160.374 215.699 157.062 218.999 152.99 218.999ZM50.0706 209.757C49.0257 209.757 48.175 210.603 48.175 211.645C48.175 214.056 50.1447 216.018 52.5661 216.018H152.99C155.411 216.018 157.381 214.056 157.381 211.645C157.381 210.604 156.531 209.757 155.485 209.757H50.0706Z" fill="#00227B"/>
<path d="M164.739 142.244L154.917 208.263H50.6414L50.286 205.875L40.8144 142.244C40.5042 140.154 42.1316 138.279 44.2494 138.279H161.304C163.426 138.279 165.05 140.154 164.739 142.244Z" fill="#FF66AC"/>
<path d="M164.739 142.244L154.917 208.263H50.6414L50.286 205.875L40.8144 142.244C40.5042 140.154 42.1316 138.279 44.2494 138.279H161.304C163.426 138.279 165.05 140.154 164.739 142.244Z" fill="#E6E9FA"/>
<g opacity="0.5">
<g opacity="0.5">
<g opacity="0.5">
<g opacity="0.5">
<path opacity="0.5" d="M44.517 146.342C44.2068 144.252 45.8342 142.377 47.952 142.377H164.72L164.74 142.245C165.05 140.154 163.427 138.279 161.305 138.279H44.2504C42.1326 138.279 40.5052 140.154 40.8154 142.245L50.2862 205.876L50.6416 208.264H53.7344L44.517 146.342Z" fill="white"/>
</g>
</g>
</g>
</g>
<g opacity="0.35">
<g opacity="0.35">
<g opacity="0.35">
<g opacity="0.35">
<path opacity="0.35" d="M158.013 138.279H149.794C152.911 149.651 151.191 175.332 131.084 188.753C105.844 205.602 60.3548 205.494 50.6973 205.875L51.0527 208.263H151.626L161.448 142.244C161.759 140.154 160.135 138.279 158.013 138.279Z" fill="#00227B"/>
</g>
</g>
</g>
</g>
<path d="M156.207 209.757H49.35L39.3362 142.462C39.1239 141.037 39.5443 139.595 40.4889 138.504C41.4334 137.413 42.8049 136.788 44.2505 136.788H161.306C162.753 136.788 164.124 137.413 165.068 138.504C166.013 139.595 166.433 141.037 166.221 142.462L156.207 209.757ZM51.9326 206.774H153.624L163.26 142.024C163.345 141.45 163.182 140.891 162.801 140.451C162.42 140.011 161.89 139.769 161.306 139.769H44.2505C43.6672 139.769 43.1365 140.012 42.7556 140.451C42.3746 140.891 42.2117 141.45 42.2973 142.024L51.9326 206.774Z" fill="#00227B"/>
<g opacity="0.3">
<g opacity="0.3">
<g opacity="0.3">
<g opacity="0.3">
<path opacity="0.3" d="M58.9418 192.839C54.986 184.155 52.1055 169.329 52.7546 160.605C53.4038 151.88 58.4844 154.549 60.0591 165.725C64.2494 195.469 60.7075 196.717 58.9418 192.839Z" fill="white"/>
</g>
</g>
</g>
</g>
<path d="M116.401 165.781C116.529 164.667 116.677 163.54 116.457 162.406C116.359 162.283 116.27 162.157 116.172 162.034C115.848 161.918 115.533 161.766 115.195 161.682C112.822 161.071 110.417 160.83 107.973 161.04C104.786 161.313 101.862 162.292 99.3464 164.31C98.4356 165.038 97.6054 165.86 96.7555 166.657C96.5276 166.873 96.3523 166.964 96.0323 166.818C95.2794 166.477 94.4682 166.324 93.6446 166.283C91.4355 166.183 89.4642 166.895 87.6253 168.044C85.6326 169.295 84.0265 170.966 82.5307 172.755C81.8939 173.513 82.1416 174.358 83.0894 174.676C83.6875 174.871 84.2857 175.062 84.8838 175.257C86.3171 175.719 87.7471 176.177 89.1762 176.638C89.1729 176.683 89.177 176.705 89.1704 176.728C89.1589 176.755 89.1466 176.787 89.1268 176.814C88.5303 177.578 88.6751 178.285 89.3037 178.948C89.3712 179.022 89.4296 179.11 89.4888 179.189C89.818 179.62 90.1545 180.056 90.5033 180.505C90.0269 180.872 89.5588 181.183 89.1449 181.559C88.9359 181.749 88.7516 182.024 88.6727 182.297C88.5386 182.737 88.7673 183.187 89.1606 183.418C89.5777 183.668 90.0072 183.657 90.3955 183.378C90.8884 183.029 91.359 182.651 91.86 182.27C92.3331 182.891 92.7815 183.478 93.2316 184.059C93.7475 184.72 94.1029 184.833 94.9026 184.613C95.0482 184.568 95.1922 184.536 95.3642 184.495C95.3757 184.665 95.3889 184.802 95.3963 184.93C95.4983 186.988 95.5921 189.05 95.7056 191.103C95.7575 192.076 96.5292 192.536 97.412 192.119C98.2093 191.745 99.0057 191.348 99.7874 190.926C101.588 189.95 103.227 188.755 104.535 187.166C106.171 185.167 107.077 182.933 106.653 180.295C106.635 180.191 106.722 180.013 106.813 179.96C107.616 179.444 108.44 178.961 109.244 178.442C111.061 177.263 112.521 175.73 113.663 173.9C115.215 171.411 116.071 168.68 116.401 165.781ZM90.3585 174.689C88.7039 174.152 86.9885 173.595 85.2261 173.024C87.0469 171.096 88.9738 169.413 91.5688 168.702C92.6902 168.395 93.9861 168.421 94.7512 168.731C93.2982 170.706 91.8419 172.681 90.3585 174.689ZM104.276 183.16C103.855 184.496 103.052 185.585 102.063 186.555C100.834 187.747 99.4031 188.637 97.8563 189.448C97.7634 187.555 97.6679 185.703 97.5741 183.89C99.9132 182.983 102.201 182.099 104.499 181.209C104.588 181.84 104.48 182.509 104.276 183.16ZM112.913 170.486C112.16 172.255 111.173 173.866 109.764 175.2C108.677 176.224 107.445 177.045 106.146 177.775C102.627 179.754 98.8544 181.118 94.9972 182.272C94.8088 182.326 94.6936 182.316 94.5694 182.144C94.3004 181.763 93.9984 181.396 93.7137 181.02C93.6948 180.999 93.6882 180.963 93.6611 180.896C93.7598 180.818 93.8651 180.74 93.9713 180.659C96.1721 178.975 98.3837 177.298 100.585 175.611C101.221 175.13 101.249 174.304 100.66 173.827C100.249 173.491 99.7067 173.496 99.232 173.852C97.9073 174.858 96.586 175.865 95.2646 176.875C94.279 177.626 93.3015 178.373 92.278 179.155C91.9267 178.698 91.5877 178.281 91.2816 177.841C91.2298 177.763 91.2825 177.564 91.3532 177.467C92.5265 175.723 93.6899 173.97 94.9108 172.257C96.1187 170.555 97.4919 168.984 99.0025 167.541C100.418 166.178 101.954 164.975 103.809 164.258C104.999 163.797 106.226 163.483 107.494 163.348C107.609 163.332 107.776 163.446 107.858 163.552C109.147 165.212 110.421 166.875 111.698 168.541C112.082 169.037 112.46 169.542 112.855 170.032C112.974 170.18 112.989 170.306 112.913 170.486ZM113.677 168.163C112.404 166.501 111.16 164.885 109.914 163.26C109.916 163.223 109.926 163.18 109.932 163.14C111.383 163.313 112.836 163.49 114.305 163.665C114.278 165.241 114.044 166.684 113.677 168.163Z" fill="#00227B"/>
<path d="M112.857 170.032C112.461 169.542 112.084 169.036 111.7 168.54C110.423 166.874 109.149 165.211 107.86 163.551C107.778 163.446 107.611 163.331 107.496 163.347C106.228 163.482 105.001 163.796 103.811 164.258C101.955 164.975 100.42 166.178 99.0044 167.54C97.4938 168.983 96.1206 170.554 94.9128 172.256C93.6918 173.97 92.5284 175.723 91.3551 177.466C91.2844 177.563 91.2317 177.762 91.2836 177.84C91.5888 178.28 91.9278 178.697 92.2799 179.154C93.3034 178.372 94.2809 177.624 95.2666 176.874C96.5879 175.864 97.9093 174.857 99.2339 173.851C99.7086 173.496 100.25 173.491 100.662 173.826C101.251 174.304 101.224 175.13 100.587 175.611C98.3857 177.297 96.1741 178.975 93.9732 180.658C93.867 180.739 93.7609 180.817 93.663 180.895C93.6901 180.963 93.6967 180.998 93.7156 181.019C94.0003 181.395 94.3023 181.762 94.5713 182.143C94.6956 182.316 94.8107 182.325 94.9992 182.271C98.8563 181.117 102.629 179.753 106.148 177.774C107.446 177.045 108.679 176.223 109.766 175.199C111.174 173.865 112.162 172.254 112.915 170.485C112.989 170.306 112.974 170.18 112.857 170.032ZM108.994 172.569C107.312 173.832 104.931 173.523 103.667 171.87C102.395 170.219 102.716 167.849 104.383 166.569C106.019 165.314 108.401 165.638 109.677 167.29C110.939 168.931 110.631 171.336 108.994 172.569Z" fill="white"/>
<path d="M113.677 168.162C112.403 166.503 111.159 164.884 109.914 163.26C109.918 163.222 109.926 163.182 109.932 163.14C111.383 163.314 112.837 163.491 114.308 163.666C114.28 165.239 114.044 166.684 113.677 168.162Z" fill="#DB2C2C"/>
<path d="M94.7514 168.732C93.2967 170.704 91.8404 172.681 90.3586 174.69C88.7016 174.15 86.9861 173.595 85.2246 173.024C87.047 171.094 88.9731 169.411 91.5681 168.702C92.6895 168.394 93.9837 168.421 94.7514 168.732Z" fill="#DB2C2C"/>
<path d="M102.062 186.555C100.833 187.748 99.4041 188.639 97.8556 189.448C97.7618 187.557 97.6672 185.705 97.5742 183.89C99.9134 182.984 102.2 182.101 104.502 181.208C104.59 181.841 104.479 182.508 104.277 183.161C103.857 184.498 103.054 185.585 102.062 186.555Z" fill="#DB2C2C"/>
<path d="M109.676 167.29C108.401 165.638 106.018 165.315 104.382 166.569C102.715 167.85 102.394 170.219 103.666 171.87C104.93 173.523 107.311 173.832 108.993 172.569C110.631 171.336 110.938 168.931 109.676 167.29ZM107.86 171.175C107.007 171.818 105.755 171.648 105.091 170.8C104.404 169.926 104.592 168.641 105.501 167.969C106.352 167.333 107.628 167.517 108.269 168.37C108.939 169.256 108.755 170.501 107.86 171.175Z" fill="#00227B"/>
<path d="M107.859 171.175C107.006 171.818 105.754 171.648 105.089 170.799C104.405 169.926 104.59 168.641 105.499 167.969C106.352 167.335 107.627 167.517 108.268 168.368C108.937 169.256 108.756 170.502 107.859 171.175Z" fill="#22A7F0"/>
<path d="M164.222 145.728C164.222 145.728 156.141 141.908 148.552 145.334C141.285 148.616 136.143 171.975 145.559 177.893C151.37 181.545 155.326 178.319 158.614 179.266C163.49 180.671 173.495 156.619 164.222 145.728Z" fill="white"/>
<g opacity="0.35">
<path d="M167.868 160.93C166.91 170.721 161.72 180.161 158.614 179.266C155.325 178.32 151.37 181.547 145.559 177.895C141.061 175.066 139.886 168.261 140.679 161.559C141.214 165.469 142.729 168.819 145.559 170.597C151.37 174.245 155.239 172.55 158.614 171.969C162.786 171.249 166.188 166.71 167.868 160.93Z" fill="#00227B"/>
</g>
<path d="M151.518 181.17C149.557 181.17 147.288 180.743 144.759 179.154C142.496 177.731 140.861 175.429 139.901 172.312C139.095 169.696 138.794 166.509 139.029 163.094C139.308 159.05 140.307 154.901 141.839 151.411C143.011 148.746 145.019 145.292 147.933 143.976C156.061 140.307 164.507 144.212 164.863 144.38L165.154 144.518L165.362 144.763C169.606 149.747 169.851 156.633 169.309 161.531C168.699 167.05 166.743 172.905 164.205 176.81C161.662 180.722 159.534 181.084 158.196 180.699C157.328 180.449 156.231 180.623 154.961 180.826C153.957 180.986 152.804 181.17 151.518 181.17ZM155.469 145.394C153.194 145.394 151.086 145.828 149.17 146.693C147.595 147.404 145.922 149.56 144.583 152.608C143.204 155.745 142.269 159.641 142.016 163.3C141.57 169.759 143.153 174.619 146.357 176.633C149.588 178.664 152.08 178.266 154.489 177.882C156.047 177.634 157.518 177.399 159.029 177.835C159.203 177.865 160.449 177.386 162.205 174.355C166.302 167.287 168.9 153.939 163.295 146.951C162.66 146.688 161.025 146.069 158.886 145.699C157.711 145.496 156.57 145.394 155.469 145.394Z" fill="#00227B"/>
</svg>
